<svg xmlns="http://www.w3.org/2000/svg" xml:space="preserve" width="2000" height="479" data-id="lg_Nd09zJKBD69L1XcKtt" data-version="1" viewBox="0 0 2000 479"><g data-padding="20"><g transform="translate(10 8.538)scale(.96435)"><rect width="172.164" height="242.95" x="540.268" y="-282.635" fill="none" rx="0" ry="0" transform="translate(594.42 401.42)"/><path fill="red" d="M1212.17 204.61q.86 3.44.86 8.6 0 4.94-.86 8.6.86 3.44.86 8.6 0 4.94-.86 8.6.86 3.44.86 8.6 0 4.94-.86 8.6.86 3.44.86 8.6 0 4.94-.86 8.6.86 3.44.86 8.6 0 4.94-.86 8.6.86 3.44.86 8.6 0 4.94-.86 8.6h-17.2q-.86-3.66-.86-8.6 0-5.16.86-8.6-.86-3.66-.86-8.6 0-5.16.86-8.6-.86-3.66-.86-8.6 0-5.16.86-8.6-.86-3.66-.86-8.6 0-5.16.86-8.6-.86-3.66-.86-8.6 0-5.16.86-8.6h-6.45q.86 3.44.86 8.6 0 4.94-.86 8.6.86 3.44.86 8.6 0 4.94-.86 8.6h-4.3q.86 3.44.86 8.6 0 4.94-.86 8.6.86 3.44.86 8.6 0 4.94-.86 8.6h-12.9q-.86-3.66-.86-8.6 0-5.16.86-8.6-.86-3.66-.86-8.6 0-5.16.86-8.6h-4.3q-.86-3.66-.86-8.6 0-5.16.86-8.6-.86-3.66-.86-8.6 0-5.16.86-8.6h-6.45q.86 3.44.86 8.6 0 4.94-.86 8.6.86 3.44.86 8.6 0 4.94-.86 8.6.86 3.44.86 8.6 0 4.94-.86 8.6.86 3.44.86 8.6 0 4.94-.86 8.6.86 3.44.86 8.6 0 4.94-.86 8.6h-17.2q-.86-3.66-.86-8.6 0-5.16.86-8.6-.86-3.66-.86-8.6 0-5.16.86-8.6-.86-3.66-.86-8.6 0-5.16.86-8.6-.86-3.66-.86-8.6 0-5.16.86-8.6-.86-3.66-.86-8.6 0-5.16.86-8.6-.86-3.66-.86-8.6 0-5.16.86-8.6-.86-3.66-.86-8.6 0-5.16.86-8.6h21.5q.86 3.44.86 8.6 0 4.94-.86 8.6h6.45q.86 3.44.86 8.6 0 4.94-.86 8.6h3.23q.86 3.44.86 8.6 0 4.94-.86 8.6h6.45q-.86-3.66-.86-8.6 0-5.16.86-8.6h3.22q-.86-3.66-.86-8.6 0-5.16.86-8.6h6.45q-.86-3.66-.86-8.6 0-5.16.86-8.6h21.5q.86 3.44.86 8.6 0 4.94-.86 8.6m86 0q.86 3.44.86 8.6 0 4.94-.86 8.6.86 3.44.86 8.6 0 4.94-.86 8.6.86 3.44.86 8.6 0 4.94-.86 8.6.86 3.44.86 8.6 0 4.94-.86 8.6.86 3.44.86 8.6 0 4.94-.86 8.6.86 3.44.86 8.6 0 4.94-.86 8.6h-17.2q-.86-3.66-.86-8.6 0-5.16.86-8.6-.86-3.66-.86-8.6 0-5.16.86-8.6-.86-3.66-.86-8.6 0-5.16.86-8.6-.86-3.66-.86-8.6 0-5.16.86-8.6-.86-3.66-.86-8.6 0-5.16.86-8.6h-6.45q.86 3.44.86 8.6 0 4.94-.86 8.6.86 3.44.86 8.6 0 4.94-.86 8.6h-4.3q.86 3.44.86 8.6 0 4.94-.86 8.6.86 3.44.86 8.6 0 4.94-.86 8.6h-12.9q-.86-3.66-.86-8.6 0-5.16.86-8.6-.86-3.66-.86-8.6 0-5.16.86-8.6h-4.3q-.86-3.66-.86-8.6 0-5.16.86-8.6-.86-3.66-.86-8.6 0-5.16.86-8.6h-6.45q.86 3.44.86 8.6 0 4.94-.86 8.6.86 3.44.86 8.6 0 4.94-.86 8.6.86 3.44.86 8.6 0 4.94-.86 8.6.86 3.44.86 8.6 0 4.94-.86 8.6.86 3.44.86 8.6 0 4.94-.86 8.6h-17.2q-.86-3.66-.86-8.6 0-5.16.86-8.6-.86-3.66-.86-8.6 0-5.16.86-8.6-.86-3.66-.86-8.6 0-5.16.86-8.6-.86-3.66-.86-8.6 0-5.16.86-8.6-.86-3.66-.86-8.6 0-5.16.86-8.6-.86-3.66-.86-8.6 0-5.16.86-8.6-.86-3.66-.86-8.6 0-5.16.86-8.6h21.5q.86 3.44.86 8.6 0 4.94-.86 8.6h6.45q.86 3.44.86 8.6 0 4.94-.86 8.6h3.23q.86 3.44.86 8.6 0 4.94-.86 8.6h6.45q-.86-3.66-.86-8.6 0-5.16.86-8.6h3.22q-.86-3.66-.86-8.6 0-5.16.86-8.6h6.45q-.86-3.66-.86-8.6 0-5.16.86-8.6h21.5q.86 3.44.86 8.6 0 4.94-.86 8.6"/><path fill="red" d="M1225.395 93.627V-.025h-479.05v479.05h479.05v-93.652h-7.8v85.852h-463.45V7.775h463.45v85.852Z"/></g><path fill="transparent" stroke="transparent" d="M719.5 0h561v479h-561z"/></g></svg>