<svg xmlns="http://www.w3.org/2000/svg" xml:space="preserve" width="2000" height="494" data-id="lg_XNyileDgScjy3Wj18q" data-version="1" viewBox="0 0 2000 494"><g data-padding="20"><g transform="translate(10 8.821)scale(.96429)"><path fill="#fff" d="m1169.61 5.343-2.564-5.128H886.929L746.549 247l139.739 246.785h280.117L1306.784 247Zm-249.99 83.33L769.626 232.257 888.852 22.009Zm239.734-67.305 41.024 228.837L942.696 91.878Zm-225.632 80.125 262.81 161.532-262.81 149.353Zm266.015 174.352-46.152 197.428-208.966-51.921ZM920.902 407.25 769.626 250.205l151.276-145.507Zm-1.923 16.666-29.486 49.357-109.611-193.582Zm11.538 6.41 201.274 50.639H899.749Zm283.963-162.173 74.356-16.025-120.508 212.812Zm73.074-28.204-73.074 16.025-37.82-212.171ZM930.517 82.263l-32.05-69.228h244.862Z"/><rect width="252.272" height="187.58" x="500.411" y="-246.9" fill="none" rx="0" ry="0" transform="translate(400.11 399.6)"/><path fill="#fff" d="m998.267 298.64-2.16-91.63-27.72 91.3v.33h-15.11l-27.72-92.46-2.32 92.46h-9.96l2.82-101.76h22.08l25.23 84.99 25.73-84.99h22.91l2.99 101.76Zm125.5 0-2.16-91.63-27.72 91.3v.33h-15.11l-27.72-92.46-2.33 92.46h-9.96l2.83-101.76h22.07l25.24 84.99 25.73-84.99h22.9l2.99 101.76Z"/></g><path fill="transparent" stroke="transparent" d="M720 0h560v494H720z"/></g></svg>